<mxfile host="app.diagrams.net" modified="2023-11-01T10:00:00Z" agent="Mozilla/5.0 (Windows NT 10.0; Win64; x64) AppleWebKit/537.36 (KHTML, like Gecko) Chrome/118.0.0.0 Safari/537.36" etag="some_etag" version="22.0.2" type="device">
  <diagram name="Page-1" id="some_id">
    <mxGraphModel dx="1422" dy="794" grid="1" gridSize="10" guides="1" tooltips="1" connect="1" arrows="1" fold="1" page="1" pageScale="1" pageWidth="850" pageHeight="1100" math="0" shadow="0">
      <root>
        <mxCell id="0" />
        <mxCell id="1" parent="0" />
        <mxCell id="2" value="Internet" style="rounded=1;whiteSpace=wrap;html=1;" vertex="1" parent="1">
          <mxGeometry x="40" y="20" width="120" height="60" as="geometry" />
        </mxCell>
        <mxCell id="3" value="Internet Gateway" style="rounded=1;whiteSpace=wrap;html=1;fillColor=#f9f;strokeColor=#333;strokeWidth=2;" vertex="1" parent="1">
          <mxGeometry x="40" y="100" width="120" height="60" as="geometry" />
        </mxCell>
        <mxCell id="4" value="Public Route Table" style="rounded=1;whiteSpace=wrap;html=1;fillColor=#ccf;strokeColor=#333;strokeWidth=2;" vertex="1" parent="1">
          <mxGeometry x="40" y="180" width="120" height="60" as="geometry" />
        </mxCell>
        <mxCell id="5" value="Public Subnet 1 (AZ-A)" style="rounded=1;whiteSpace=wrap;html=1;fillColor=#afa;strokeColor=#333;strokeWidth=2;" vertex="1" parent="1">
          <mxGeometry x="200" y="100" width="160" height="60" as="geometry" />
        </mxCell>
        <mxCell id="6" value="Public Subnet 2 (AZ-B)" style="rounded=1;whiteSpace=wrap;html=1;fillColor=#afa;strokeColor=#333;strokeWidth=2;" vertex="1" parent="1">
          <mxGeometry x="200" y="180" width="160" height="60" as="geometry" />
        </mxCell>
        <mxCell id="7" value="NAT Gateway" style="rounded=1;whiteSpace=wrap;html=1;fillColor=#ffa;strokeColor=#333;strokeWidth=2;" vertex="1" parent="1">
          <mxGeometry x="200" y="260" width="160" height="60" as="geometry" />
        </mxCell>
        <mxCell id="10" value="Private Route Table" style="rounded=1;whiteSpace=wrap;html=1;fillColor=#ccf;strokeColor=#333;strokeWidth=2;" vertex="1" parent="1">
          <mxGeometry x="380" y="260" width="160" height="60" as="geometry" />
        </mxCell>
        <mxCell id="11" value="Private Subnet 1 (AZ-A)" style="rounded=1;whiteSpace=wrap;html=1;fillColor=#aef;strokeColor=#333;strokeWidth=2;" vertex="1" parent="1">
          <mxGeometry x="560" y="180" width="160" height="60" as="geometry" />
        </mxCell>
        <mxCell id="12" value="Private Subnet 2 (AZ-B)" style="rounded=1;whiteSpace=wrap;html=1;fillColor=#aef;strokeColor=#333;strokeWidth=2;" vertex="1" parent="1">
          <mxGeometry x="560" y="260" width="160" height="60" as="geometry" />
        </mxCell>
        <mxCell id="15" value="VPC" style="rounded=1;whiteSpace=wrap;html=1;dashed=1;" vertex="1" parent="1">
          <mxGeometry x="10" y="60" width="720" height="380" as="geometry" />
        </mxCell>
        <mxCell id="16" value="AZ-A" style="rounded=1;whiteSpace=wrap;html=1;dashed=1;" vertex="1" parent="1">
          <mxGeometry x="180" y="80" width="540" height="180" as="geometry" />
        </mxCell>
        <mxCell id="17" value="AZ-B" style="rounded=1;whiteSpace=wrap;html=1;dashed=1;" vertex="1" parent="1">
          <mxGeometry x="180" y="160" width="540" height="180" as="geometry" />
        </mxCell>
        <mxCell id="20" style="edgeStyle=orthogonalEdgeStyle;rounded=0;orthogonalLoop=1;jettySize=auto;html=1;entryX=0;entryY=0.5;entryDx=0;entryDy=0;" edge="1" parent="1" source="2" target="3">
          <mxGeometry relative="1" as="geometry" />
        </mxCell>
        <mxCell id="21" style="edgeStyle=orthogonalEdgeStyle;rounded=0;orthogonalLoop=1;jettySize=auto;html=1;entryX=0;entryY=0.5;entryDx=0;entryDy=0;" edge="1" parent="1" source="3" target="4">
          <mxGeometry relative="1" as="geometry" />
        </mxCell>
        <mxCell id="22" style="edgeStyle=orthogonalEdgeStyle;rounded=0;orthogonalLoop=1;jettySize=auto;html=1;entryX=0;entryY=0.5;entryDx=0;entryDy=0;" edge="1" parent="1" source="4" target="5">
          <mxGeometry relative="1" as="geometry" />
        </mxCell>
        <mxCell id="23" style="edgeStyle=orthogonalEdgeStyle;rounded=0;orthogonalLoop=1;jettySize=auto;html=1;entryX=0;entryY=0.5;entryDx=0;entryDy=0;" edge="1" parent="1" source="4" target="6">
          <mxGeometry relative="1" as="geometry" />
        </mxCell>
        <mxCell id="24" style="edgeStyle=orthogonalEdgeStyle;rounded=0;orthogonalLoop=1;jettySize=auto;html=1;entryX=0;entryY=0.5;entryDx=0;entryDy=0;" edge="1" parent="1" source="5" target="7">
          <mxGeometry relative="1" as="geometry" />
        </mxCell>
        <mxCell id="25" style="edgeStyle=orthogonalEdgeStyle;rounded=0;orthogonalLoop=1;jettySize=auto;html=1;entryX=0;entryY=0.5;entryDx=0;entryDy=0;" edge="1" parent="1" source="7" target="10">
          <mxGeometry relative="1" as="geometry" />
        </mxCell>
        <mxCell id="26" style="edgeStyle=orthogonalEdgeStyle;rounded=0;orthogonalLoop=1;jettySize=auto;html=1;entryX=0;entryY=0.5;entryDx=0;entryDy=0;" edge="1" parent="1" source="10" target="11">
          <mxGeometry relative="1" as="geometry" />
        </mxCell>
        <mxCell id="27" style="edgeStyle=orthogonalEdgeStyle;rounded=0;orthogonalLoop=1;jettySize=auto;html=1;entryX=0;entryY=0.5;entryDx=0;entryDy=0;" edge="1" parent="1" source="10" target="12">